STARTFONT 2.1
FONT -thai-dbthaitext-bold-r-normal--25-180-100-100-p-75-tis620-0
SIZE 18 100 100
FONTBOUNDINGBOX 33 28 -8 -10
STARTPROPERTIES 25
FOUNDRY "thai"
FAMILY_NAME "dbthaitext"
WEIGHT_NAME "bold"
SLANT "r"
SETWIDTH_NAME "normal"
ADD_STYLE_NAME ""
PIXEL_SIZE 25
POINT_SIZE 180
RESOLUTION_X 100
RESOLUTION_Y 100
SPACING "p"
AVERAGE_WIDTH 75
CHARSET_REGISTRY "tis620"
CHARSET_ENCODING "0"
FONT "-thai-dbthaitext-bold-r-normal--25-180-100-100-p-75-tis620-0"
COPYRIGHT "Typeface (c) The Monotype Corporation plc. Data (c) The Monotype Corporation plc/Type Solutions Inc. 1990-1992. All Rights Reserved"
RAW_PIXELSIZE 1000
RAW_POINTSIZE 723
RAW_ASCENT 738
RAW_DESCENT 408
RAW_AVERAGE_WIDTH 3023
FACE_NAME "DBThaiTextBoldne5"
DEFAULT_CHAR 0
FONT_ASCENT 18
FONT_DESCENT 10
ENDPROPERTIES
CHARS 190
STARTCHAR space
ENCODING 32
SWIDTH 240 0
DWIDTH 6 0
BBX 0 0 0 0
BITMAP
ENDCHAR
STARTCHAR exclam
ENCODING 33
SWIDTH 200 0
DWIDTH 5 0
BBX 1 10 2 0
BITMAP
80
80
80
80
80
80
80
00
00
80
ENDCHAR
STARTCHAR quotedbl
ENCODING 34
SWIDTH 280 0
DWIDTH 7 0
BBX 5 3 1 7
BITMAP
88
88
88
ENDCHAR
STARTCHAR numbersign
ENCODING 35
SWIDTH 320 0
DWIDTH 8 0
BBX 8 10 0 0
BITMAP
12
12
36
7f
26
24
24
ff
6c
4c
ENDCHAR
STARTCHAR dollar
ENCODING 36
SWIDTH 320 0
DWIDTH 8 0
BBX 7 13 0 -2
BITMAP
10
3c
7e
56
70
78
1e
16
d2
76
7c
10
10
ENDCHAR
STARTCHAR percent
ENCODING 37
SWIDTH 520 0
DWIDTH 13 0
BBX 12 10 0 0
BITMAP
7080
d880
8900
d900
7200
04e0
05b0
0910
09b0
10e0
ENDCHAR
STARTCHAR ampersand
ENCODING 38
SWIDTH 400 0
DWIDTH 10 0
BBX 9 10 1 0
BITMAP
3800
6c00
6400
3c00
3800
7900
cf00
c600
cf00
7b80
ENDCHAR
STARTCHAR apostrophe
ENCODING 39
SWIDTH 120 0
DWIDTH 3 0
BBX 1 3 1 7
BITMAP
80
80
80
ENDCHAR
STARTCHAR parenleft
ENCODING 40
SWIDTH 200 0
DWIDTH 5 0
BBX 4 13 0 -3
BITMAP
30
60
60
c0
c0
c0
c0
c0
c0
60
60
20
30
ENDCHAR
STARTCHAR parenright
ENCODING 41
SWIDTH 200 0
DWIDTH 5 0
BBX 4 13 0 -3
BITMAP
40
60
20
30
30
10
10
10
30
20
60
40
40
ENDCHAR
STARTCHAR asterisk
ENCODING 42
SWIDTH 240 0
DWIDTH 6 0
BBX 5 5 0 5
BITMAP
20
f8
30
50
50
ENDCHAR
STARTCHAR plus
ENCODING 43
SWIDTH 320 0
DWIDTH 8 0
BBX 7 7 1 0
BITMAP
10
10
10
fe
10
10
10
ENDCHAR
STARTCHAR comma
ENCODING 44
SWIDTH 200 0
DWIDTH 5 0
BBX 1 3 2 -1
BITMAP
80
80
80
ENDCHAR
STARTCHAR minus
ENCODING 45
SWIDTH 200 0
DWIDTH 5 0
BBX 4 1 0 3
BITMAP
f0
ENDCHAR
STARTCHAR period
ENCODING 46
SWIDTH 160 0
DWIDTH 4 0
BBX 1 2 1 0
BITMAP
80
80
ENDCHAR
STARTCHAR slash
ENCODING 47
SWIDTH 160 0
DWIDTH 4 0
BBX 4 10 0 0
BITMAP
10
10
20
20
20
40
40
40
80
80
ENDCHAR
STARTCHAR 0
ENCODING 48
SWIDTH 320 0
DWIDTH 8 0
BBX 6 10 1 0
BITMAP
78
78
cc
84
84
84
84
cc
48
70
ENDCHAR
STARTCHAR 1
ENCODING 49
SWIDTH 320 0
DWIDTH 8 0
BBX 4 10 1 0
BITMAP
10
70
f0
10
10
10
10
10
10
10
ENDCHAR
STARTCHAR 2
ENCODING 50
SWIDTH 320 0
DWIDTH 8 0
BBX 7 11 0 -1
BITMAP
7c
6e
c6
06
0e
1c
38
70
e0
fe
e0
ENDCHAR
STARTCHAR 3
ENCODING 51
SWIDTH 320 0
DWIDTH 8 0
BBX 7 10 0 0
BITMAP
7c
ee
c6
0c
1c
1e
06
c6
ee
7c
ENDCHAR
STARTCHAR 4
ENCODING 52
SWIDTH 320 0
DWIDTH 8 0
BBX 7 10 0 0
BITMAP
0c
1c
1c
34
64
44
fe
04
04
04
ENDCHAR
STARTCHAR 5
ENCODING 53
SWIDTH 320 0
DWIDTH 8 0
BBX 7 10 0 0
BITMAP
3e
60
60
78
7c
66
02
c2
6e
78
ENDCHAR
STARTCHAR 6
ENCODING 54
SWIDTH 320 0
DWIDTH 8 0
BBX 7 10 0 0
BITMAP
3c
66
60
48
fc
e6
42
42
6e
3c
ENDCHAR
STARTCHAR 7
ENCODING 55
SWIDTH 320 0
DWIDTH 8 0
BBX 7 10 0 0
BITMAP
fe
06
0c
0c
18
10
30
30
30
60
ENDCHAR
STARTCHAR 8
ENCODING 56
SWIDTH 320 0
DWIDTH 8 0
BBX 6 10 1 0
BITMAP
38
4c
8c
4c
38
cc
8c
8c
dc
38
ENDCHAR
STARTCHAR 9
ENCODING 57
SWIDTH 320 0
DWIDTH 8 0
BBX 6 10 1 0
BITMAP
38
dc
8c
8c
cc
7c
2c
0c
cc
78
ENDCHAR
STARTCHAR colon
ENCODING 58
SWIDTH 160 0
DWIDTH 4 0
BBX 1 8 2 0
BITMAP
80
80
00
00
00
00
80
80
ENDCHAR
STARTCHAR semicolon
ENCODING 59
SWIDTH 200 0
DWIDTH 5 0
BBX 1 9 2 -1
BITMAP
80
80
80
00
00
00
80
80
80
ENDCHAR
STARTCHAR less
ENCODING 60
SWIDTH 320 0
DWIDTH 8 0
BBX 7 7 1 0
BITMAP
02
0e
7c
e0
f8
1e
02
ENDCHAR
STARTCHAR equal
ENCODING 61
SWIDTH 320 0
DWIDTH 8 0
BBX 7 4 1 1
BITMAP
fe
00
00
fe
ENDCHAR
STARTCHAR greater
ENCODING 62
SWIDTH 320 0
DWIDTH 8 0
BBX 7 7 1 0
BITMAP
80
e0
7c
0e
3e
f0
80
ENDCHAR
STARTCHAR question
ENCODING 63
SWIDTH 360 0
DWIDTH 9 0
BBX 7 11 1 0
BITMAP
10
7c
e6
c6
06
0c
18
10
00
00
10
ENDCHAR
STARTCHAR at
ENCODING 64
SWIDTH 560 0
DWIDTH 14 0
BBX 12 12 1 -2
BITMAP
1f80
2060
4030
4f90
9990
9190
9110
9330
5fe0
4000
3080
1f80
ENDCHAR
STARTCHAR A
ENCODING 65
SWIDTH 400 0
DWIDTH 10 0
BBX 10 10 0 0
BITMAP
1e00
1e00
1e00
3b00
3300
3300
7780
7f80
e180
c1c0
ENDCHAR
STARTCHAR B
ENCODING 66
SWIDTH 400 0
DWIDTH 10 0
BBX 7 10 2 0
BITMAP
fc
86
86
86
fc
86
86
86
8e
fc
ENDCHAR
STARTCHAR C
ENCODING 67
SWIDTH 400 0
DWIDTH 10 0
BBX 9 10 1 0
BITMAP
3f00
7380
e180
c000
c000
c000
c180
e180
7f00
3e00
ENDCHAR
STARTCHAR D
ENCODING 68
SWIDTH 400 0
DWIDTH 10 0
BBX 7 10 2 0
BITMAP
f8
8c
86
82
82
82
86
84
8c
f8
ENDCHAR
STARTCHAR E
ENCODING 69
SWIDTH 360 0
DWIDTH 9 0
BBX 7 10 2 0
BITMAP
fe
80
80
80
fc
80
80
80
80
fe
ENDCHAR
STARTCHAR F
ENCODING 70
SWIDTH 360 0
DWIDTH 9 0
BBX 6 10 2 0
BITMAP
fc
80
80
80
fc
80
80
80
80
80
ENDCHAR
STARTCHAR G
ENCODING 71
SWIDTH 440 0
DWIDTH 11 0
BBX 9 10 1 0
BITMAP
3e00
6300
4180
c000
8000
8780
c180
4180
7780
3e80
ENDCHAR
STARTCHAR H
ENCODING 72
SWIDTH 400 0
DWIDTH 10 0
BBX 7 10 2 0
BITMAP
82
82
82
82
fe
82
82
82
82
82
ENDCHAR
STARTCHAR I
ENCODING 73
SWIDTH 160 0
DWIDTH 4 0
BBX 1 10 1 0
BITMAP
80
80
80
80
80
80
80
80
80
80
ENDCHAR
STARTCHAR J
ENCODING 74
SWIDTH 320 0
DWIDTH 8 0
BBX 5 10 1 0
BITMAP
08
08
08
08
08
08
88
88
f8
70
ENDCHAR
STARTCHAR K
ENCODING 75
SWIDTH 400 0
DWIDTH 10 0
BBX 8 10 2 0
BITMAP
87
8e
d8
d0
f0
f8
98
8c
8e
87
ENDCHAR
STARTCHAR L
ENCODING 76
SWIDTH 360 0
DWIDTH 9 0
BBX 6 10 2 0
BITMAP
80
80
80
80
80
80
80
80
80
fc
ENDCHAR
STARTCHAR M
ENCODING 77
SWIDTH 480 0
DWIDTH 12 0
BBX 9 10 1 0
BITMAP
e180
e180
f380
b380
b380
b380
9c80
9c80
9c80
8c80
ENDCHAR
STARTCHAR N
ENCODING 78
SWIDTH 400 0
DWIDTH 10 0
BBX 7 10 2 0
BITMAP
82
c2
e2
f2
b2
9a
8e
8e
86
82
ENDCHAR
STARTCHAR O
ENCODING 79
SWIDTH 440 0
DWIDTH 11 0
BBX 9 10 1 0
BITMAP
1e00
6300
4100
c180
8080
8080
c180
4100
6300
1c00
ENDCHAR
STARTCHAR P
ENCODING 80
SWIDTH 360 0
DWIDTH 9 0
BBX 7 10 2 0
BITMAP
fc
8e
86
86
8e
fc
80
80
80
80
ENDCHAR
STARTCHAR Q
ENCODING 81
SWIDTH 440 0
DWIDTH 11 0
BBX 9 11 1 -1
BITMAP
1e00
6300
c180
c180
8080
8080
c580
4780
6780
1e80
0080
ENDCHAR
STARTCHAR R
ENCODING 82
SWIDTH 400 0
DWIDTH 10 0
BBX 8 10 2 0
BITMAP
fc
82
82
82
86
fc
87
82
82
83
ENDCHAR
STARTCHAR S
ENCODING 83
SWIDTH 360 0
DWIDTH 9 0
BBX 9 10 0 0
BITMAP
3e00
6700
e380
f000
7e00
1f80
0380
e380
7780
3e00
ENDCHAR
STARTCHAR T
ENCODING 84
SWIDTH 360 0
DWIDTH 9 0
BBX 8 10 0 0
BITMAP
ff
08
08
08
08
08
08
08
08
08
ENDCHAR
STARTCHAR U
ENCODING 85
SWIDTH 400 0
DWIDTH 10 0
BBX 7 10 2 0
BITMAP
82
82
82
82
82
82
82
86
4c
38
ENDCHAR
STARTCHAR V
ENCODING 86
SWIDTH 360 0
DWIDTH 9 0
BBX 9 10 0 0
BITMAP
c180
6380
6300
6300
3700
3600
3600
1c00
1c00
1c00
ENDCHAR
STARTCHAR W
ENCODING 87
SWIDTH 520 0
DWIDTH 13 0
BBX 13 10 0 0
BITMAP
c718
e738
6530
6530
6db0
2da0
3de0
38e0
38e0
18c0
ENDCHAR
STARTCHAR X
ENCODING 88
SWIDTH 360 0
DWIDTH 9 0
BBX 9 10 0 0
BITMAP
e380
7700
3600
3e00
1c00
1c00
3e00
7600
6300
e380
ENDCHAR
STARTCHAR Y
ENCODING 89
SWIDTH 360 0
DWIDTH 9 0
BBX 9 10 0 0
BITMAP
6180
7300
3300
3e00
1c00
0800
0800
0800
0800
0800
ENDCHAR
STARTCHAR Z
ENCODING 90
SWIDTH 360 0
DWIDTH 9 0
BBX 8 10 0 0
BITMAP
ff
07
06
0c
1c
38
30
70
e0
ff
ENDCHAR
STARTCHAR bracketleft
ENCODING 91
SWIDTH 200 0
DWIDTH 5 0
BBX 3 13 1 -3
BITMAP
e0
80
80
80
80
80
80
80
80
80
80
80
e0
ENDCHAR
STARTCHAR backslash
ENCODING 92
SWIDTH 160 0
DWIDTH 4 0
BBX 4 10 0 0
BITMAP
80
80
40
40
40
20
20
20
10
10
ENDCHAR
STARTCHAR bracketright
ENCODING 93
SWIDTH 200 0
DWIDTH 5 0
BBX 3 13 0 -3
BITMAP
e0
20
20
20
20
20
20
20
20
20
20
20
e0
ENDCHAR
STARTCHAR asciicircum
ENCODING 94
SWIDTH 320 0
DWIDTH 8 0
BBX 7 6 1 4
BITMAP
38
38
6c
6c
4c
c6
ENDCHAR
STARTCHAR underscore
ENCODING 95
SWIDTH 320 0
DWIDTH 8 0
BBX 9 1 -1 -3
BITMAP
ff80
ENDCHAR
STARTCHAR grave
ENCODING 96
SWIDTH 160 0
DWIDTH 4 0
BBX 4 4 0 2
BITMAP
f0
f0
f0
60
ENDCHAR
STARTCHAR a
ENCODING 97
SWIDTH 320 0
DWIDTH 8 0
BBX 8 8 0 0
BITMAP
78
fc
c6
1e
f6
c6
ce
75
ENDCHAR
STARTCHAR b
ENCODING 98
SWIDTH 360 0
DWIDTH 9 0
BBX 7 10 1 0
BITMAP
80
80
d8
fc
c6
c6
82
c6
ec
f8
ENDCHAR
STARTCHAR c
ENCODING 99
SWIDTH 320 0
DWIDTH 8 0
BBX 7 8 0 0
BITMAP
3c
7c
e6
c0
c0
c6
ee
3c
ENDCHAR
STARTCHAR d
ENCODING 100
SWIDTH 360 0
DWIDTH 9 0
BBX 8 10 0 0
BITMAP
02
02
3e
76
66
62
c2
62
76
39
ENDCHAR
STARTCHAR e
ENCODING 101
SWIDTH 320 0
DWIDTH 8 0
BBX 7 8 0 0
BITMAP
38
6c
c6
c6
fe
c0
ee
78
ENDCHAR
STARTCHAR f
ENCODING 102
SWIDTH 200 0
DWIDTH 5 0
BBX 4 10 0 0
BITMAP
30
20
20
f0
20
20
20
20
20
20
ENDCHAR
STARTCHAR g
ENCODING 103
SWIDTH 360 0
DWIDTH 9 0
BBX 7 11 0 -3
BITMAP
3a
66
66
42
c2
62
66
3e
02
66
3c
ENDCHAR
STARTCHAR h
ENCODING 104
SWIDTH 360 0
DWIDTH 9 0
BBX 6 10 1 0
BITMAP
80
80
d8
fc
c4
84
84
84
84
84
ENDCHAR
STARTCHAR i
ENCODING 105
SWIDTH 160 0
DWIDTH 4 0
BBX 1 10 1 0
BITMAP
80
00
80
80
80
80
80
80
80
80
ENDCHAR
STARTCHAR j
ENCODING 106
SWIDTH 160 0
DWIDTH 4 0
BBX 2 13 0 -3
BITMAP
40
00
40
40
40
40
40
40
40
40
40
c0
c0
ENDCHAR
STARTCHAR k
ENCODING 107
SWIDTH 320 0
DWIDTH 8 0
BBX 7 10 1 0
BITMAP
80
80
8c
dc
d8
f0
f8
98
8c
8c
ENDCHAR
STARTCHAR l
ENCODING 108
SWIDTH 160 0
DWIDTH 4 0
BBX 1 10 1 0
BITMAP
80
80
80
80
80
80
80
80
80
80
ENDCHAR
STARTCHAR m
ENCODING 109
SWIDTH 520 0
DWIDTH 13 0
BBX 10 8 1 0
BITMAP
9980
ffc0
c640
8440
8440
8440
8440
8440
ENDCHAR
STARTCHAR n
ENCODING 110
SWIDTH 360 0
DWIDTH 9 0
BBX 6 8 1 0
BITMAP
98
fc
c4
84
84
84
84
84
ENDCHAR
STARTCHAR o
ENCODING 111
SWIDTH 360 0
DWIDTH 9 0
BBX 7 8 1 0
BITMAP
38
6c
c6
86
86
c6
4e
38
ENDCHAR
STARTCHAR p
ENCODING 112
SWIDTH 360 0
DWIDTH 9 0
BBX 7 11 1 -3
BITMAP
b8
ec
c6
c6
86
c6
ee
bc
80
80
80
ENDCHAR
STARTCHAR q
ENCODING 113
SWIDTH 360 0
DWIDTH 9 0
BBX 6 11 1 -3
BITMAP
7c
6c
cc
84
84
84
cc
7c
0c
04
04
ENDCHAR
STARTCHAR r
ENCODING 114
SWIDTH 240 0
DWIDTH 6 0
BBX 4 8 1 0
BITMAP
90
f0
c0
80
80
80
80
80
ENDCHAR
STARTCHAR s
ENCODING 115
SWIDTH 320 0
DWIDTH 8 0
BBX 7 8 0 0
BITMAP
38
7c
c6
78
3e
06
e6
7c
ENDCHAR
STARTCHAR t
ENCODING 116
SWIDTH 200 0
DWIDTH 5 0
BBX 4 10 0 0
BITMAP
20
20
20
f0
20
20
20
20
20
30
ENDCHAR
STARTCHAR u
ENCODING 117
SWIDTH 360 0
DWIDTH 9 0
BBX 7 8 1 0
BITMAP
84
84
84
84
84
84
fc
72
ENDCHAR
STARTCHAR v
ENCODING 118
SWIDTH 320 0
DWIDTH 8 0
BBX 7 8 0 0
BITMAP
c6
c6
6c
6c
6c
38
38
38
ENDCHAR
STARTCHAR w
ENCODING 119
SWIDTH 440 0
DWIDTH 11 0
BBX 11 8 0 0
BITMAP
ce60
ee60
6ec0
6ac0
7ac0
7ac0
3b80
3180
ENDCHAR
STARTCHAR x
ENCODING 120
SWIDTH 320 0
DWIDTH 8 0
BBX 7 8 0 0
BITMAP
ce
6c
3c
38
38
38
6c
e6
ENDCHAR
STARTCHAR y
ENCODING 121
SWIDTH 320 0
DWIDTH 8 0
BBX 8 11 0 -3
BITMAP
e3
67
66
66
3e
3c
3c
18
18
78
70
ENDCHAR
STARTCHAR z
ENCODING 122
SWIDTH 280 0
DWIDTH 7 0
BBX 7 8 0 0
BITMAP
7e
0e
1c
18
38
70
70
fe
ENDCHAR
STARTCHAR braceleft
ENCODING 123
SWIDTH 240 0
DWIDTH 6 0
BBX 3 13 1 -3
BITMAP
60
40
40
40
40
c0
80
40
40
40
40
60
20
ENDCHAR
STARTCHAR bar
ENCODING 124
SWIDTH 160 0
DWIDTH 4 0
BBX 1 13 1 -3
BITMAP
80
80
80
80
80
80
80
80
80
80
80
80
80
ENDCHAR
STARTCHAR braceright
ENCODING 125
SWIDTH 240 0
DWIDTH 6 0
BBX 4 13 1 -3
BITMAP
e0
20
20
20
20
30
10
20
20
20
20
e0
c0
ENDCHAR
STARTCHAR asciitilde
ENCODING 126
SWIDTH 320 0
DWIDTH 8 0
BBX 7 3 1 2
BITMAP
20
fa
8c
ENDCHAR
STARTCHAR exclamdown
ENCODING 161
SWIDTH 360 0
DWIDTH 9 0
BBX 7 9 1 0
BITMAP
3c
c4
e2
62
42
42
42
42
42
ENDCHAR
STARTCHAR cent
ENCODING 162
SWIDTH 360 0
DWIDTH 9 0
BBX 8 9 0 0
BITMAP
79
f5
95
65
09
09
09
0b
3f
ENDCHAR
STARTCHAR sterling
ENCODING 163
SWIDTH 400 0
DWIDTH 10 0
BBX 9 9 0 0
BITMAP
2800
5c80
e480
d880
7880
0880
0880
0980
1f80
ENDCHAR
STARTCHAR currency
ENCODING 164
SWIDTH 360 0
DWIDTH 9 0
BBX 7 9 1 0
BITMAP
78
cc
92
ba
ea
f2
42
42
42
ENDCHAR
STARTCHAR yen
ENCODING 165
SWIDTH 360 0
DWIDTH 9 0
BBX 7 9 1 0
BITMAP
44
fc
96
ba
ea
f2
42
42
42
ENDCHAR
STARTCHAR brokenbar
ENCODING 166
SWIDTH 440 0
DWIDTH 11 0
BBX 10 9 0 0
BITMAP
2400
5c40
e440
d440
7440
1e40
35c0
34c0
1c40
ENDCHAR
STARTCHAR section
ENCODING 167
SWIDTH 280 0
DWIDTH 7 0
BBX 6 9 0 0
BITMAP
08
14
14
4c
44
64
34
34
1c
ENDCHAR
STARTCHAR diaeresis
ENCODING 168
SWIDTH 360 0
DWIDTH 9 0
BBX 7 9 0 0
BITMAP
3c
66
42
32
5a
3a
0a
0e
06
ENDCHAR
STARTCHAR copyright
ENCODING 169
SWIDTH 400 0
DWIDTH 10 0
BBX 10 9 0 0
BITMAP
1e00
3300
6100
6100
5100
5380
3d80
1140
1180
ENDCHAR
STARTCHAR ordfeminine
ENCODING 170
SWIDTH 360 0
DWIDTH 9 0
BBX 8 9 1 0
BITMAP
71
ee
ae
fa
12
12
12
12
7e
ENDCHAR
STARTCHAR guillemotleft
ENCODING 171
SWIDTH 400 0
DWIDTH 10 0
BBX 10 9 0 0
BITMAP
28c0
5d80
e600
d500
6d00
0900
0900
0900
1f00
ENDCHAR
STARTCHAR notsign
ENCODING 172
SWIDTH 480 0
DWIDTH 12 0
BBX 9 9 1 0
BITMAP
3800
4c80
e480
6480
4480
4480
6f80
5d80
6c80
ENDCHAR
STARTCHAR hyphen
ENCODING 173
SWIDTH 480 0
DWIDTH 12 0
BBX 9 13 1 -4
BITMAP
3800
4c80
e480
6480
4480
4480
6480
5480
6f80
0480
0a80
0a80
0700
ENDCHAR
STARTCHAR registered
ENCODING 174
SWIDTH 400 0
DWIDTH 10 0
BBX 9 13 0 -4
BITMAP
0e00
3b00
7080
1880
3080
3080
7080
9080
6080
3c80
7e80
6b80
3980
ENDCHAR
STARTCHAR macron
ENCODING 175
SWIDTH 400 0
DWIDTH 10 0
BBX 9 13 0 -4
BITMAP
0e00
3b00
7080
1880
3080
3080
7080
9080
6080
0880
3a80
4f80
3580
ENDCHAR
STARTCHAR degree
ENCODING 176
SWIDTH 320 0
DWIDTH 8 0
BBX 7 14 0 -5
BITMAP
30
6e
f8
0c
74
5c
7c
0c
04
04
2a
ec
b4
d8
ENDCHAR
STARTCHAR plusminus
ENCODING 177
SWIDTH 480 0
DWIDTH 12 0
BBX 10 9 0 0
BITMAP
2880
7dc0
e540
9b40
6a40
0e40
0c40
0c40
0840
ENDCHAR
STARTCHAR twosuperior
ENCODING 178
SWIDTH 480 0
DWIDTH 12 0
BBX 11 9 0 0
BITMAP
1400
7f20
4920
5d20
5520
5920
7ba0
3560
2360
ENDCHAR
STARTCHAR threesuperior
ENCODING 179
SWIDTH 480 0
DWIDTH 12 0
BBX 11 9 1 0
BITMAP
3800
4c80
e480
6480
4480
45c0
66a0
56a0
64e0
ENDCHAR
STARTCHAR acute
ENCODING 180
SWIDTH 360 0
DWIDTH 9 0
BBX 7 9 1 0
BITMAP
78
4c
92
ba
aa
b2
72
62
42
ENDCHAR
STARTCHAR mu
ENCODING 181
SWIDTH 360 0
DWIDTH 9 0
BBX 8 9 0 0
BITMAP
14
7f
49
5d
55
59
79
31
21
ENDCHAR
STARTCHAR paragraph
ENCODING 182
SWIDTH 360 0
DWIDTH 9 0
BBX 7 9 1 0
BITMAP
3c
c4
e2
62
42
42
62
52
62
ENDCHAR
STARTCHAR periodcentered
ENCODING 183
SWIDTH 400 0
DWIDTH 10 0
BBX 9 9 0 0
BITMAP
6100
5780
5480
7480
1480
1880
1880
1880
1080
ENDCHAR
STARTCHAR cedilla
ENCODING 184
SWIDTH 320 0
DWIDTH 8 0
BBX 8 9 0 0
BITMAP
38
6f
f0
0c
24
24
24
24
7c
ENDCHAR
STARTCHAR onesuperior
ENCODING 185
SWIDTH 400 0
DWIDTH 10 0
BBX 10 9 0 0
BITMAP
6000
5100
5100
7100
1100
1380
1580
1940
1180
ENDCHAR
STARTCHAR masculine
ENCODING 186
SWIDTH 360 0
DWIDTH 9 0
BBX 8 9 0 0
BITMAP
40
e1
a1
61
21
21
21
21
7f
ENDCHAR
STARTCHAR guillemotright
ENCODING 187
SWIDTH 360 0
DWIDTH 9 0
BBX 8 12 0 0
BITMAP
01
01
01
41
e1
a1
61
21
21
21
21
7f
ENDCHAR
STARTCHAR onequarter
ENCODING 188
SWIDTH 360 0
DWIDTH 9 0
BBX 7 9 1 0
BITMAP
40
a2
a2
e2
92
ba
ee
c6
82
ENDCHAR
STARTCHAR onehalf
ENCODING 189
SWIDTH 360 0
DWIDTH 9 0
BBX 7 12 1 0
BITMAP
02
02
02
42
a2
a2
e2
92
ba
ee
c6
82
ENDCHAR
STARTCHAR threequarters
ENCODING 190
SWIDTH 440 0
DWIDTH 11 0
BBX 9 9 0 0
BITMAP
4000
e480
a680
6e80
3b80
3980
3180
3080
2080
ENDCHAR
STARTCHAR questiondown
ENCODING 191
SWIDTH 440 0
DWIDTH 11 0
BBX 9 12 0 0
BITMAP
0080
0080
0080
4080
e480
a680
6e80
3b80
3980
3180
3080
2080
ENDCHAR
STARTCHAR Agrave
ENCODING 192
SWIDTH 400 0
DWIDTH 10 0
BBX 9 9 0 0
BITMAP
0e00
3b00
7080
1880
3080
3080
7080
9080
6080
ENDCHAR
STARTCHAR Aacute
ENCODING 193
SWIDTH 400 0
DWIDTH 10 0
BBX 7 9 1 0
BITMAP
40
a2
a2
e2
22
72
ae
a6
e2
ENDCHAR
STARTCHAR Acircumflex
ENCODING 194
SWIDTH 360 0
DWIDTH 9 0
BBX 6 9 1 0
BITMAP
20
d4
f4
e4
64
64
c4
c4
fc
ENDCHAR
STARTCHAR Atilde
ENCODING 195
SWIDTH 320 0
DWIDTH 8 0
BBX 7 9 0 0
BITMAP
30
ce
f8
0c
04
04
1c
14
1c
ENDCHAR
STARTCHAR Adiaeresis
ENCODING 196
SWIDTH 360 0
DWIDTH 9 0
BBX 7 13 1 -4
BITMAP
3c
c4
e2
62
42
42
62
52
62
02
02
02
02
ENDCHAR
STARTCHAR Aring
ENCODING 197
SWIDTH 360 0
DWIDTH 9 0
BBX 6 9 1 0
BITMAP
78
cc
84
74
dc
8c
ec
94
64
ENDCHAR
STARTCHAR AE
ENCODING 198
SWIDTH 400 0
DWIDTH 10 0
BBX 9 13 0 -4
BITMAP
0e00
3b00
7080
1880
3080
3080
7080
9080
6080
0080
0080
0080
0080
ENDCHAR
STARTCHAR Ccedilla
ENCODING 199
SWIDTH 320 0
DWIDTH 8 0
BBX 7 9 0 0
BITMAP
7c
ce
82
02
02
02
0e
12
0e
ENDCHAR
STARTCHAR Egrave
ENCODING 200
SWIDTH 360 0
DWIDTH 9 0
BBX 8 9 1 0
BITMAP
39
ee
96
ba
ea
f2
42
42
42
ENDCHAR
STARTCHAR Eacute
ENCODING 201
SWIDTH 400 0
DWIDTH 10 0
BBX 10 9 0 0
BITMAP
6000
5100
5100
7d40
1b40
1780
1100
1100
7f00
ENDCHAR
STARTCHAR Ecircumflex
ENCODING 202
SWIDTH 360 0
DWIDTH 9 0
BBX 7 10 1 0
BITMAP
04
7c
cc
4c
7e
5e
ce
e6
96
66
ENDCHAR
STARTCHAR Ediaeresis
ENCODING 203
SWIDTH 400 0
DWIDTH 10 0
BBX 8 9 0 0
BITMAP
42
a5
a5
67
2d
39
31
21
21
ENDCHAR
STARTCHAR Igrave
ENCODING 204
SWIDTH 440 0
DWIDTH 11 0
BBX 11 10 0 0
BITMAP
01a0
42e0
e1c0
a480
6680
2f80
3980
3180
3080
3080
ENDCHAR
STARTCHAR Iacute
ENCODING 205
SWIDTH 360 0
DWIDTH 9 0
BBX 7 9 1 0
BITMAP
7c
c6
82
62
92
e2
c2
c6
fe
ENDCHAR
STARTCHAR Icircumflex
ENCODING 206
SWIDTH 360 0
DWIDTH 9 0
BBX 8 9 1 0
BITMAP
79
ce
fe
02
e2
a2
e2
c6
fe
ENDCHAR
STARTCHAR Idiaeresis
ENCODING 207
SWIDTH 320 0
DWIDTH 8 0
BBX 6 9 1 0
BITMAP
40
e4
ac
ec
74
04
04
0c
18
ENDCHAR
STARTCHAR ETH
ENCODING 208
SWIDTH 280 0
DWIDTH 7 0
BBX 6 8 0 0
BITMAP
e4
ac
78
00
00
e4
bc
78
ENDCHAR
STARTCHAR Ntilde
ENCODING 209
SWIDTH 0 0
DWIDTH 0 0
BBX 7 4 -5 10
BITMAP
40
a6
ac
78
ENDCHAR
STARTCHAR Ograve
ENCODING 210
SWIDTH 280 0
DWIDTH 7 0
BBX 6 9 0 0
BITMAP
78
4c
c4
04
04
04
04
04
04
ENDCHAR
STARTCHAR Oacute
ENCODING 211
SWIDTH 280 0
DWIDTH 7 0
BBX 10 13 -4 0
BITMAP
e000
a000
e000
0000
0780
04c0
0c40
0040
0040
0040
0040
0040
0040
ENDCHAR
STARTCHAR Ocircumflex
ENCODING 212
SWIDTH 0 0
DWIDTH 0 0
BBX 7 4 -8 10
BITMAP
10
7c
fe
0e
ENDCHAR
STARTCHAR Otilde
ENCODING 213
SWIDTH 40 0
DWIDTH 1 0
BBX 7 4 -7 10
BITMAP
34
6c
fc
0c
ENDCHAR
STARTCHAR Odiaeresis
ENCODING 214
SWIDTH 0 0
DWIDTH 0 0
BBX 7 5 -8 10
BITMAP
04
1a
6e
fe
06
ENDCHAR
STARTCHAR multiply
ENCODING 215
SWIDTH 40 0
DWIDTH 1 0
BBX 7 4 -7 10
BITMAP
14
6c
fc
0c
ENDCHAR
STARTCHAR Ooblique
ENCODING 216
SWIDTH 0 0
DWIDTH 0 0
BBX 4 5 -5 -6
BITMAP
70
50
70
10
10
ENDCHAR
STARTCHAR Ugrave
ENCODING 217
SWIDTH 0 0
DWIDTH 0 0
BBX 6 5 -7 -6
BITMAP
64
94
74
34
1c
ENDCHAR
STARTCHAR Uacute
ENCODING 218
SWIDTH 0 0
DWIDTH 0 0
BBX 1 2 -3 -3
BITMAP
80
80
ENDCHAR
STARTCHAR Ucircumflex
ENCODING 219
SWIDTH 0 0
DWIDTH 0 0
BBX 1 1 -3 -6
BITMAP
80
ENDCHAR
STARTCHAR Udiaeresis
ENCODING 220
SWIDTH 0 0
DWIDTH 0 0
BBX 1 1 0 0
BITMAP
00
ENDCHAR
STARTCHAR Yacute
ENCODING 221
SWIDTH 0 0
DWIDTH 0 0
BBX 1 1 0 0
BITMAP
00
ENDCHAR
STARTCHAR THORN
ENCODING 222
SWIDTH 0 0
DWIDTH 0 0
BBX 1 1 0 0
BITMAP
00
ENDCHAR
STARTCHAR ssharp
ENCODING 223
SWIDTH 400 0
DWIDTH 10 0
BBX 7 12 2 -1
BITMAP
10
fc
9e
96
9e
fc
9e
96
96
9e
fc
10
ENDCHAR
STARTCHAR agrave
ENCODING 224
SWIDTH 200 0
DWIDTH 5 0
BBX 4 8 1 0
BITMAP
80
80
80
80
80
e0
90
e0
ENDCHAR
STARTCHAR aacute
ENCODING 225
SWIDTH 360 0
DWIDTH 9 0
BBX 8 8 1 0
BITMAP
88
88
88
88
88
ee
99
ee
ENDCHAR
STARTCHAR acircumflex
ENCODING 226
SWIDTH 240 0
DWIDTH 6 0
BBX 7 15 -1 0
BITMAP
7e
64
10
10
10
10
10
10
10
10
10
10
1c
14
1c
ENDCHAR
STARTCHAR atilde
ENCODING 227
SWIDTH 240 0
DWIDTH 6 0
BBX 7 15 -1 0
BITMAP
60
d0
b0
70
10
10
10
10
10
10
10
10
1c
16
1c
ENDCHAR
STARTCHAR adiaeresis
ENCODING 228
SWIDTH 280 0
DWIDTH 7 0
BBX 7 15 -1 0
BITMAP
58
58
78
38
28
08
08
08
08
08
08
08
0e
0a
0e
ENDCHAR
STARTCHAR aring
ENCODING 229
SWIDTH 280 0
DWIDTH 7 0
BBX 6 13 0 -4
BITMAP
78
4c
c4
04
04
04
04
04
04
04
04
04
04
ENDCHAR
STARTCHAR ae
ENCODING 230
SWIDTH 400 0
DWIDTH 10 0
BBX 6 12 2 -3
BITMAP
28
7c
c4
f4
74
24
04
04
04
04
0c
18
ENDCHAR
STARTCHAR ccedilla
ENCODING 231
SWIDTH 0 0
DWIDTH 0 0
BBX 6 5 -7 10
BITMAP
04
78
88
f4
48
ENDCHAR
STARTCHAR egrave
ENCODING 232
SWIDTH 0 0
DWIDTH 0 0
BBX 1 3 -2 15
BITMAP
80
80
80
ENDCHAR
STARTCHAR eacute
ENCODING 233
SWIDTH 0 0
DWIDTH 0 0
BBX 5 3 -5 15
BITMAP
c8
c8
70
ENDCHAR
STARTCHAR ecircumflex
ENCODING 234
SWIDTH 0 0
DWIDTH 0 0
BBX 6 3 -6 15
BITMAP
f4
cc
d8
ENDCHAR
STARTCHAR ediaeresis
ENCODING 235
SWIDTH 0 0
DWIDTH 0 0
BBX 4 3 -4 15
BITMAP
20
f0
20
ENDCHAR
STARTCHAR igrave
ENCODING 236
SWIDTH 0 0
DWIDTH 0 0
BBX 5 4 -5 14
BITMAP
38
c0
a0
60
ENDCHAR
STARTCHAR iacute
ENCODING 237
SWIDTH 0 0
DWIDTH 0 0
BBX 3 3 -4 10
BITMAP
e0
a0
e0
ENDCHAR
STARTCHAR icircumflex
ENCODING 238
SWIDTH 0 0
DWIDTH 0 0
BBX 3 3 -4 13
BITMAP
e0
a0
e0
ENDCHAR
STARTCHAR idiaeresis
ENCODING 239
SWIDTH 320 0
DWIDTH 8 0
BBX 9 9 0 0
BITMAP
1c00
6300
5d80
bc80
be80
bd80
dd80
4300
3c00
ENDCHAR
STARTCHAR eth
ENCODING 240
SWIDTH 360 0
DWIDTH 9 0
BBX 7 6 1 0
BITMAP
78
c6
c6
c6
46
38
ENDCHAR
STARTCHAR ntilde
ENCODING 241
SWIDTH 360 0
DWIDTH 9 0
BBX 7 7 1 -1
BITMAP
38
c6
ba
aa
fe
36
04
ENDCHAR
STARTCHAR ograve
ENCODING 242
SWIDTH 440 0
DWIDTH 11 0
BBX 8 9 1 0
BITMAP
80
80
80
9b
bf
b9
a9
f9
7f
ENDCHAR
STARTCHAR oacute
ENCODING 243
SWIDTH 400 0
DWIDTH 10 0
BBX 8 6 1 0
BITMAP
76
c9
c9
e9
b9
6b
ENDCHAR
STARTCHAR ocircumflex
ENCODING 244
SWIDTH 440 0
DWIDTH 11 0
BBX 10 10 1 0
BITMAP
0040
00c0
00c0
0180
7f80
d800
d400
dc00
ef00
3f80
ENDCHAR
STARTCHAR otilde
ENCODING 245
SWIDTH 440 0
DWIDTH 11 0
BBX 10 10 1 0
BITMAP
0040
08c0
1cc0
1480
7f00
d800
d400
dc00
ef00
3f80
ENDCHAR
STARTCHAR odiaeresis
ENCODING 246
SWIDTH 320 0
DWIDTH 8 0
BBX 7 10 0 0
BITMAP
40
c0
40
78
7c
02
32
7a
7c
38
ENDCHAR
STARTCHAR division
ENCODING 247
SWIDTH 440 0
DWIDTH 11 0
BBX 9 9 1 0
BITMAP
0080
0080
0080
6c80
d680
9280
e380
f780
6600
ENDCHAR
STARTCHAR oslash
ENCODING 248
SWIDTH 400 0
DWIDTH 10 0
BBX 9 9 1 0
BITMAP
0180
0080
0080
3f80
4000
c700
f500
fb00
6f00
ENDCHAR
STARTCHAR ugrave
ENCODING 249
SWIDTH 360 0
DWIDTH 9 0
BBX 8 9 1 0
BITMAP
01
01
01
7f
c9
84
b4
ea
72
ENDCHAR
STARTCHAR uacute
ENCODING 250
SWIDTH 1000 0
DWIDTH 25 0
BBX 25 1 0 3
BITMAP
ffffff80
ENDCHAR
STARTCHAR ucircumflex
ENCODING 251
SWIDTH 480 0
DWIDTH 12 0
BBX 12 1 0 3
BITMAP
fff0
ENDCHAR
STARTCHAR udiaeresis
ENCODING 252
SWIDTH 0 0
DWIDTH 0 0
BBX 3 5 -5 -10
BITMAP
60
a0
60
20
20
ENDCHAR
STARTCHAR yacute
ENCODING 253
SWIDTH 0 0
DWIDTH 0 0
BBX 5 5 -7 -10
BITMAP
68
b8
78
38
18
ENDCHAR
STARTCHAR thorn
ENCODING 254
SWIDTH 400 0
DWIDTH 10 0
BBX 11 10 0 0
BITMAP
0f00
3180
2040
4f40
8920
8e20
8a20
4940
60c0
1f00
ENDCHAR
STARTCHAR ydiaeresis
ENCODING 255
SWIDTH 0 0
DWIDTH 0 0
BBX 1 1 0 0
BITMAP
00
ENDCHAR
ENDFONT
